<?xml version="1.0" encoding="UTF-8"?>
<svg id="Ebene_1" xmlns="http://www.w3.org/2000/svg" version="1.1" viewBox="0 0 737.74 176.73">
  <!-- Generator: Adobe Illustrator 29.4.0, SVG Export Plug-In . SVG Version: 2.1.0 Build 152)  -->
  <defs>
    <style>
      .st0 {
        fill: #fff;
      }
    </style>
  </defs>
  <g>
    <path class="st0" d="M155.6,57.11v18.33h21.19v-18.33h5.72v43.81h-5.72v-20.54h-21.19v20.54h-5.66v-43.81h5.66Z"/>
    <path class="st0" d="M220.6,84.93c0,11.64-8.06,16.71-15.67,16.71-8.52,0-15.08-6.24-15.08-16.19,0-10.53,6.89-16.71,15.6-16.71s15.15,6.57,15.15,16.19ZM195.64,85.25c0,6.89,3.97,12.09,9.56,12.09s9.56-5.14,9.56-12.22c0-5.33-2.67-12.09-9.43-12.09s-9.69,6.24-9.69,12.22Z"/>
    <path class="st0" d="M234.71,60.42v9.04h8.19v4.36h-8.19v16.97c0,3.9,1.11,6.11,4.29,6.11,1.5,0,2.6-.19,3.32-.39l.26,4.29c-1.11.46-2.86.78-5.07.78-2.67,0-4.81-.84-6.17-2.4-1.62-1.69-2.21-4.49-2.21-8.19v-17.16h-4.88v-4.36h4.88v-7.54l5.59-1.5Z"/>
    <path class="st0" d="M252.12,86.23c.13,7.74,5.07,10.92,10.79,10.92,4.09,0,6.57-.72,8.71-1.62l.98,4.09c-2.02.91-5.46,1.95-10.47,1.95-9.69,0-15.47-6.37-15.47-15.86s5.59-16.97,14.76-16.97c10.27,0,13,9.04,13,14.82,0,1.17-.13,2.08-.19,2.67h-22.1ZM268.9,82.13c.06-3.64-1.5-9.3-7.93-9.3-5.79,0-8.32,5.33-8.78,9.3h16.71Z"/>
    <path class="st0" d="M281.5,54.77h5.72v46.15h-5.72v-46.15Z"/>
    <path class="st0" d="M330.66,93.08c0,2.64-.89,4.61-2.66,5.9-1.77,1.29-4.62,1.94-8.54,1.94h-11.28v-26.4h11.16c3.44,0,5.97.62,7.58,1.86,1.61,1.24,2.42,2.85,2.42,4.82,0,1.55-.35,2.77-1.04,3.66-.69.89-1.69,1.53-3,1.9,3.57.85,5.36,2.96,5.36,6.32ZM311.14,77.16v9.04h8.2c4.69,0,7.04-1.53,7.04-4.6,0-1.12-.23-2-.7-2.64-.47-.64-1.21-1.1-2.22-1.38-1.01-.28-2.39-.42-4.12-.42h-8.2ZM323.7,97.98c1.15-.2,2.1-.68,2.86-1.44.76-.76,1.14-1.91,1.14-3.46,0-1.41-.43-2.46-1.3-3.14-.87-.68-1.87-1.1-3-1.26-1.13-.16-2.49-.24-4.06-.24h-8.2v9.84h8.2c1.76,0,3.21-.1,4.36-.3Z"/>
    <path class="st0" d="M337.38,74.52h2.96v15.2c0,2.93.62,5.13,1.86,6.6,1.24,1.47,3.31,2.2,6.22,2.2s4.98-.73,6.22-2.2c1.24-1.47,1.86-3.67,1.86-6.6v-15.2h2.96v15.2c0,7.68-3.68,11.52-11.04,11.52-3.28,0-5.94-.87-7.98-2.6s-3.06-4.71-3.06-8.92v-15.2Z"/>
    <path class="st0" d="M387.02,100.92l-7.28-10.72h-10.2v10.72h-2.96v-26.4h11.48c3.2,0,5.69.69,7.48,2.06,1.79,1.37,2.68,3.38,2.68,6.02,0,1.92-.48,3.47-1.44,4.66-.96,1.19-2.27,2.01-3.92,2.46l7.6,11.2h-3.44ZM378.26,87.72c2.21,0,3.93-.37,5.16-1.1,1.23-.73,1.84-2.07,1.84-4.02s-.67-3.41-2-4.22c-1.33-.81-3.11-1.22-5.32-1.22h-8.4v10.56h8.72Z"/>
    <path class="st0" d="M418.9,98.24c-2.43,2-5.68,3-9.76,3-3.31,0-6.02-.61-8.14-1.84-2.12-1.23-3.66-2.85-4.62-4.88-.96-2.03-1.44-4.29-1.44-6.8,0-4.21,1.2-7.52,3.6-9.92,2.4-2.4,5.84-3.6,10.32-3.6,2,0,3.81.21,5.44.62,1.63.41,2.92.89,3.88,1.42v3.12c-1.47-.88-2.95-1.52-4.46-1.92s-3.13-.6-4.86-.6c-3.49,0-6.19.93-8.1,2.78s-2.86,4.55-2.86,8.1.93,6.18,2.78,8.06c1.85,1.88,4.73,2.82,8.62,2.82,2.59,0,4.89-.64,6.92-1.92v-6.36h-8.48v-2.4h11.16v10.32Z"/>
    <path class="st0" d="M447.06,74.52v26.4h-2.96v-12.76h-16.16v12.76h-2.96v-26.4h2.96v11.16h16.16v-11.16h2.96Z"/>
    <path class="st0" d="M456.52,97.82c-2.12-2.28-3.18-5.65-3.18-10.1s1.06-7.82,3.18-10.1c2.12-2.28,5.02-3.42,8.7-3.42s6.58,1.14,8.7,3.42c2.12,2.28,3.18,5.65,3.18,10.1s-1.06,7.82-3.18,10.1c-2.12,2.28-5.02,3.42-8.7,3.42s-6.58-1.14-8.7-3.42ZM471.9,95.96c1.49-1.76,2.24-4.51,2.24-8.24s-.75-6.48-2.24-8.24c-1.49-1.76-3.72-2.64-6.68-2.64s-5.19.88-6.68,2.64c-1.49,1.76-2.24,4.51-2.24,8.24s.75,6.48,2.24,8.24c1.49,1.76,3.72,2.64,6.68,2.64s5.19-.88,6.68-2.64Z"/>
    <path class="st0" d="M506.94,98.28v2.64h-21.8v-26.4h2.96v23.76h18.84Z"/>
    <path class="st0" d="M511.09,99.36l20.72-22.2h-20.28v-2.64h24.6v1.6l-20.64,22.16h20.64v2.64h-25.04v-1.56Z"/>
  </g>
  <g>
    <path class="st0" d="M230.58,127.1c0,.92-.31,1.61-.93,2.06-.62.45-1.62.68-2.99.68h-3.95v-9.24h3.91c1.2,0,2.09.22,2.65.65s.85,1,.85,1.69c0,.54-.12.97-.36,1.28-.24.31-.59.53-1.05.67,1.25.3,1.88,1.04,1.88,2.21ZM223.74,121.53v3.16h2.87c1.64,0,2.46-.54,2.46-1.61,0-.39-.08-.7-.25-.92-.16-.22-.42-.38-.78-.48-.36-.1-.84-.15-1.44-.15h-2.87ZM228.14,128.82c.4-.07.73-.24,1-.5.27-.27.4-.67.4-1.21,0-.49-.15-.86-.45-1.1-.3-.24-.65-.39-1.05-.44-.4-.06-.87-.08-1.42-.08h-2.87v3.44h2.87c.62,0,1.12-.04,1.53-.1Z"/>
    <path class="st0" d="M234.19,120.61h1.04v5.32c0,1.03.22,1.8.65,2.31.43.51,1.16.77,2.18.77s1.74-.26,2.18-.77.65-1.28.65-2.31v-5.32h1.04v5.32c0,2.69-1.29,4.03-3.86,4.03-1.15,0-2.08-.3-2.79-.91-.71-.61-1.07-1.65-1.07-3.12v-5.32Z"/>
    <path class="st0" d="M245.83,121.81c.32-.41.8-.73,1.43-.96s1.41-.35,2.31-.35c.69,0,1.34.07,1.95.2.61.14,1.08.27,1.41.41v.95c-.38-.16-.86-.31-1.44-.44-.58-.14-1.2-.2-1.88-.2-1.03,0-1.82.15-2.39.45-.56.3-.85.72-.85,1.26,0,.27.05.5.16.67s.3.32.58.44.68.21,1.2.27l2.55.32c.92.12,1.62.35,2.11.67.49.33.73.85.73,1.58,0,.56-.16,1.05-.49,1.48-.33.43-.82.77-1.47,1.02-.65.25-1.46.37-2.41.37-.76,0-1.45-.07-2.08-.22-.63-.15-1.11-.3-1.45-.46v-.99c.38.18.9.35,1.54.51.64.16,1.31.25,2,.25,1.08,0,1.91-.17,2.47-.5s.85-.82.85-1.44c0-.38-.15-.69-.46-.92-.31-.23-.82-.39-1.54-.47l-2.62-.32c-1.81-.22-2.72-.96-2.72-2.2,0-.51.16-.97.48-1.38Z"/>
    <path class="st0" d="M261.53,121.53v7.39h2.25v.92h-5.54v-.92h2.25v-7.39h-2.25v-.92h5.54v.92h-2.25Z"/>
    <path class="st0" d="M276.3,120.61v9.24h-.97l-5.68-8.32.07,8.32h-1.04v-9.24h1.44l5.21,7.62-.07-7.62h1.04Z"/>
    <path class="st0" d="M287.83,128.93v.92h-7.57v-9.24h7.27v.92h-6.23v3.14h5.91v.84h-5.91v3.42h6.54Z"/>
    <path class="st0" d="M291.75,121.81c.32-.41.8-.73,1.44-.96s1.4-.35,2.31-.35c.69,0,1.34.07,1.95.2s1.08.27,1.41.41v.95c-.38-.16-.86-.31-1.44-.44-.58-.14-1.2-.2-1.88-.2-1.03,0-1.82.15-2.39.45s-.85.72-.85,1.26c0,.27.05.5.16.67s.3.32.58.44c.28.12.68.21,1.2.27l2.55.32c.92.12,1.62.35,2.11.67s.74.85.74,1.58c0,.56-.16,1.05-.49,1.48-.33.43-.82.77-1.47,1.02-.65.25-1.46.37-2.41.37-.76,0-1.45-.07-2.08-.22-.63-.15-1.11-.3-1.45-.46v-.99c.38.18.9.35,1.54.51.64.16,1.31.25,2,.25,1.08,0,1.91-.17,2.47-.5.57-.34.85-.82.85-1.44,0-.38-.15-.69-.46-.92-.31-.23-.82-.39-1.54-.47l-2.62-.32c-1.81-.22-2.72-.96-2.72-2.2,0-.51.16-.97.48-1.38Z"/>
    <path class="st0" d="M303.23,121.81c.32-.41.8-.73,1.44-.96s1.4-.35,2.31-.35c.69,0,1.34.07,1.95.2s1.08.27,1.41.41v.95c-.38-.16-.86-.31-1.44-.44-.58-.14-1.2-.2-1.88-.2-1.03,0-1.82.15-2.39.45s-.85.72-.85,1.26c0,.27.05.5.16.67s.3.32.58.44c.28.12.68.21,1.2.27l2.55.32c.92.12,1.62.35,2.11.67s.74.85.74,1.58c0,.56-.16,1.05-.49,1.48-.33.43-.82.77-1.47,1.02-.65.25-1.46.37-2.41.37-.76,0-1.45-.07-2.08-.22-.63-.15-1.11-.3-1.45-.46v-.99c.38.18.9.35,1.54.51.64.16,1.31.25,2,.25,1.08,0,1.91-.17,2.47-.5.57-.34.85-.82.85-1.44,0-.38-.15-.69-.46-.92-.31-.23-.82-.39-1.54-.47l-2.62-.32c-1.81-.22-2.72-.96-2.72-2.2,0-.51.16-.97.48-1.38Z"/>
    <path class="st0" d="M325.87,127.79c0-1.11.55-1.99,2.3-3-.83-.88-1.34-1.61-1.34-2.51,0-1.16.88-2.35,2.68-2.35,1.43,0,2.31.76,2.31,1.95s-.81,2.07-2.65,3.05l.53.53,1.97,1.93c.95-1.27,1.58-3.03,1.82-4.72h.71c-.28,1.89-.98,3.8-2.06,5.2l2.02,1.98h-.91l-1.51-1.5c-.92.99-2.06,1.62-3.4,1.62-1.18,0-2.47-.49-2.47-2.19ZM328.37,129.34c1.12,0,2.1-.57,2.9-1.46l-2.51-2.49-.17-.17c-1.49.85-1.96,1.55-1.96,2.47s.48,1.65,1.74,1.65ZM328.74,124.47c1.88-.99,2.37-1.77,2.37-2.54,0-1.02-.85-1.37-1.65-1.37-1.16,0-1.91.74-1.91,1.71,0,.62.31,1.23,1.19,2.2Z"/>
    <path class="st0" d="M357.13,127.1c0,.92-.31,1.61-.93,2.06-.62.45-1.62.68-2.99.68h-3.95v-9.24h3.91c1.2,0,2.09.22,2.65.65.56.43.85,1,.85,1.69,0,.54-.12.97-.36,1.28-.24.31-.59.53-1.05.67,1.25.3,1.88,1.04,1.88,2.21ZM350.3,121.53v3.16h2.87c1.64,0,2.46-.54,2.46-1.61,0-.39-.08-.7-.25-.92s-.42-.38-.78-.48c-.36-.1-.84-.15-1.44-.15h-2.87ZM354.7,128.82c.4-.07.73-.24,1-.5.27-.27.4-.67.4-1.21,0-.49-.15-.86-.46-1.1-.3-.24-.65-.39-1.05-.44-.4-.06-.87-.08-1.42-.08h-2.87v3.44h2.87c.62,0,1.12-.04,1.53-.1Z"/>
    <path class="st0" d="M365.13,121.53v7.39h2.25v.92h-5.54v-.92h2.25v-7.39h-2.25v-.92h5.54v.92h-2.25Z"/>
    <path class="st0" d="M375.25,125.66h-1.43v4.19h-1.04v-9.24h1.04v4.13h1.23l3.96-4.13h1.34l-4.34,4.47,4.83,4.77h-1.39l-4.21-4.19Z"/>
    <path class="st0" d="M391.43,128.93v.92h-7.57v-9.24h7.27v.92h-6.23v3.14h5.91v.84h-5.91v3.42h6.54Z"/>
    <path class="st0" d="M414.39,120.61v9.24h-1.04v-4.47h-5.66v4.47h-1.04v-9.24h1.04v3.91h5.66v-3.91h1.04Z"/>
    <path class="st0" d="M418.96,128.76c-.74-.8-1.11-1.98-1.11-3.54s.37-2.74,1.11-3.53c.74-.8,1.76-1.2,3.04-1.2s2.3.4,3.04,1.2c.74.8,1.11,1.98,1.11,3.53s-.37,2.74-1.11,3.54-1.76,1.2-3.04,1.2-2.3-.4-3.04-1.2ZM424.35,128.11c.52-.62.78-1.58.78-2.88s-.26-2.27-.78-2.88c-.52-.62-1.3-.92-2.34-.92s-1.82.31-2.34.92c-.52.62-.78,1.58-.78,2.88s.26,2.27.78,2.88c.52.62,1.3.92,2.34.92s1.82-.31,2.34-.92Z"/>
    <path class="st0" d="M437.98,121.53h-3.98v8.32h-1.04v-8.32h-3.98v-.92h8.99v.92Z"/>
    <path class="st0" d="M448.83,128.93v.92h-7.57v-9.24h7.27v.92h-6.23v3.14h5.91v.84h-5.91v3.42h6.54Z"/>
    <path class="st0" d="M460.83,128.93v.92h-7.63v-9.24h1.04v8.32h6.59Z"/>
  </g>
</svg>